<svg width="512" height="512" xmlns="http://www.w3.org/2000/svg">

 <g>
  <title>background</title>
  <rect fill="none" id="canvas_background" height="402" width="582" y="-1" x="-1"/>
 </g>
 <g>
  <title>Layer 1</title>
  <g id="svg_1">
   <g id="svg_2">
    <path fill="#28f3ff" id="svg_3" d="m506.555,208.064l-242.696,-177.697c-4.68,-3.426 -11.038,-3.426 -15.716,0l-242.698,177.697c-5.928,4.341 -7.216,12.665 -2.875,18.593s12.666,7.214 18.593,2.875l234.837,-171.944l234.837,171.943c2.368,1.735 5.12,2.57 7.848,2.57c4.096,0 8.138,-1.885 10.744,-5.445c4.342,-5.927 3.054,-14.251 -2.874,-18.592z"/>
   </g>
  </g>
  <g id="svg_4">
   <g id="svg_5">
    <path fill="#28f3ff" id="svg_6" d="m442.246,232.543c-7.346,0 -13.303,5.956 -13.303,13.303l0,211.749l-106.422,0l0,-115.586c0,-36.68 -29.842,-66.52 -66.52,-66.52s-66.52,29.842 -66.52,66.52l0,115.587l-106.423,0l0,-211.749c0,-7.347 -5.957,-13.303 -13.303,-13.303s-13.303,5.956 -13.303,13.303l0,225.053c0,7.347 5.957,13.303 13.303,13.303l133.029,0c6.996,0 12.721,-5.405 13.251,-12.267c0.032,-0.311 0.052,-0.651 0.052,-1.036l0,-128.89c0,-22.009 17.905,-39.914 39.914,-39.914s39.914,17.906 39.914,39.914l0,128.89c0,0.383 0.02,0.717 0.052,1.024c0.524,6.867 6.251,12.279 13.251,12.279l133.029,0c7.347,0 13.303,-5.956 13.303,-13.303l0,-225.053c-0.001,-7.348 -5.957,-13.304 -13.304,-13.304z"/>
   </g>
  </g>
  <g id="svg_7"/>
  <g id="svg_8"/>
  <g id="svg_9"/>
  <g id="svg_10"/>
  <g id="svg_11"/>
  <g id="svg_12"/>
  <g id="svg_13"/>
  <g id="svg_14"/>
  <g id="svg_15"/>
  <g id="svg_16"/>
  <g id="svg_17"/>
  <g id="svg_18"/>
  <g id="svg_19"/>
  <g id="svg_20"/>
  <g id="svg_21"/>
 </g>
</svg>