<svg width="512" height="512" xmlns="http://www.w3.org/2000/svg">

 <g>
  <title>background</title>
  <rect fill="none" id="canvas_background" height="402" width="582" y="-1" x="-1"/>
 </g>
 <g>
  <title>Layer 1</title>
  <path fill="#ffffff" id="svg_1" d="m0,37.386124l0,253.925781l175.203125,-116.21875l-175.203125,-137.707031zm0,0"/>
  <path fill="#ffffff" id="svg_2" d="m277.597656,186.464249l215.542969,-169l-473.753906,0l215.015625,169c12.714844,9.972656 30.480468,9.972656 43.195312,0zm0,0"/>
  <path fill="#ffffff" id="svg_3" d="m336.84375,178.132218l175.15625,116.3125l0,-253.648438l-175.15625,137.335938zm0,0"/>
  <path fill="#ffffff" id="svg_4" d="m296.109375,207.069718c-11.804687,9.257812 -25.960937,13.890625 -40.109375,13.890625c-14.152344,0 -28.300781,-4.628906 -40.113281,-13.890625l-15.84375,-12.457031l-200.042969,132.699218l0,7.152344l512,0l0,-7.007812l-200.023438,-132.824219l-15.867187,12.4375zm0,0"/>
 </g>
</svg>