<svg width="47.825" height="47.825" xmlns="http://www.w3.org/2000/svg">

 <g>
  <title>background</title>
  <rect fill="none" id="canvas_background" height="402" width="582" y="-1" x="-1"/>
 </g>
 <g>
  <title>Layer 1</title>
  <g id="svg_1">
   <g id="svg_2">
    <g id="svg_3">
     <path fill="#ffffff" id="svg_4" d="m36.439,12.646c0,-6.919 -5.608,-12.527 -12.528,-12.527s-12.527,5.608 -12.527,12.527c0,9.913 12.527,24.582 12.527,24.582s12.528,-14.72 12.528,-24.582zm-18.706,-0.748c0,-3.413 2.767,-6.179 6.179,-6.179s6.179,2.766 6.179,6.179c0,3.413 -2.767,6.179 -6.179,6.179s-6.179,-2.766 -6.179,-6.179z"/>
     <circle fill="#ffffff" id="svg_5" r="3.038" cy="11.898" cx="23.911"/>
     <path fill="#ffffff" id="svg_6" d="m30.994,32.87c-1.021,1.476 -1.979,2.761 -2.777,3.793c7.916,0.476 13.104,2.185 15.034,3.456c-2.261,1.491 -8.979,3.587 -19.338,3.587c-10.358,0 -17.077,-2.097 -19.338,-3.587c1.93,-1.271 7.114,-2.979 15.022,-3.455c-0.8,-1.032 -1.759,-2.316 -2.781,-3.792c-9.741,0.959 -16.816,3.841 -16.816,7.246c0,4.19 10.707,7.588 23.913,7.588c13.207,0 23.912,-3.396 23.912,-7.588c0.002,-3.407 -7.081,-6.29 -16.831,-7.248z"/>
    </g>
   </g>
  </g>
  <g id="svg_7"/>
  <g id="svg_8"/>
  <g id="svg_9"/>
  <g id="svg_10"/>
  <g id="svg_11"/>
  <g id="svg_12"/>
  <g id="svg_13"/>
  <g id="svg_14"/>
  <g id="svg_15"/>
  <g id="svg_16"/>
  <g id="svg_17"/>
  <g id="svg_18"/>
  <g id="svg_19"/>
  <g id="svg_20"/>
  <g id="svg_21"/>
 </g>
</svg>