<svg width="512.076" height="512.076" xmlns="http://www.w3.org/2000/svg">

 <g>
  <title>background</title>
  <rect fill="none" id="canvas_background" height="402" width="582" y="-1" x="-1"/>
 </g>
 <g>
  <title>Layer 1</title>
  <g id="svg_1">
   <g id="svg_2">
    <g id="svg_3">
     <path fill="#f46a6c" id="svg_4" d="m498.639,395.039l-103.646,-69.12c-13.153,-8.701 -30.784,-5.838 -40.508,6.579l-30.191,38.818c-3.88,5.116 -10.933,6.6 -16.546,3.482l-5.743,-3.166c-19.038,-10.377 -42.726,-23.296 -90.453,-71.04s-60.672,-71.45 -71.049,-90.453l-3.149,-5.743c-3.161,-5.612 -1.705,-12.695 3.413,-16.606l38.792,-30.182c12.412,-9.725 15.279,-27.351 6.588,-40.508l-69.12,-103.646c-8.907,-13.398 -26.777,-17.42 -40.566,-9.131l-43.341,26.035c-13.618,8.006 -23.609,20.972 -27.878,36.181c-15.607,56.866 -3.866,155.008 140.706,299.597c115.004,114.995 200.619,145.92 259.465,145.92c13.543,0.058 27.033,-1.704 40.107,-5.239c15.212,-4.264 28.18,-14.256 36.181,-27.878l26.061,-43.315c8.301,-13.792 4.281,-31.673 -9.123,-40.585zm-5.581,31.829l-26.001,43.341c-5.745,9.832 -15.072,17.061 -26.027,20.173c-52.497,14.413 -144.213,2.475 -283.008,-136.32s-150.732,-230.503 -136.319,-283.008c3.116,-10.968 10.354,-20.307 20.198,-26.061l43.341,-26.001c5.983,-3.6 13.739,-1.855 17.604,3.959l37.547,56.371l31.514,47.266c3.774,5.707 2.534,13.356 -2.85,17.579l-38.801,30.182c-11.808,9.029 -15.18,25.366 -7.91,38.332l3.081,5.598c10.906,20.002 24.465,44.885 73.967,94.379c49.502,49.493 74.377,63.053 94.37,73.958l5.606,3.089c12.965,7.269 29.303,3.898 38.332,-7.91l30.182,-38.801c4.224,-5.381 11.87,-6.62 17.579,-2.85l103.637,69.12c5.818,3.862 7.563,11.622 3.958,17.604z"/>
     <path fill="#f46a6c" id="svg_5" d="m290.161,85.39c80.081,0.089 144.977,64.986 145.067,145.067c0,4.713 3.82,8.533 8.533,8.533s8.533,-3.82 8.533,-8.533c-0.099,-89.503 -72.63,-162.035 -162.133,-162.133c-4.713,0 -8.533,3.82 -8.533,8.533s3.82,8.533 8.533,8.533z"/>
     <path fill="#f46a6c" id="svg_6" d="m290.161,136.59c51.816,0.061 93.806,42.051 93.867,93.867c0,4.713 3.821,8.533 8.533,8.533c4.713,0 8.533,-3.82 8.533,-8.533c-0.071,-61.238 -49.696,-110.863 -110.933,-110.933c-4.713,0 -8.533,3.82 -8.533,8.533s3.82,8.533 8.533,8.533z"/>
     <path fill="#f46a6c" id="svg_7" d="m290.161,187.79c23.552,0.028 42.638,19.114 42.667,42.667c0,4.713 3.821,8.533 8.533,8.533s8.533,-3.82 8.533,-8.533c-0.038,-32.974 -26.759,-59.696 -59.733,-59.733c-4.713,0 -8.533,3.82 -8.533,8.533s3.82,8.533 8.533,8.533z"/>
    </g>
   </g>
  </g>
  <g id="svg_8"/>
  <g id="svg_9"/>
  <g id="svg_10"/>
  <g id="svg_11"/>
  <g id="svg_12"/>
  <g id="svg_13"/>
  <g id="svg_14"/>
  <g id="svg_15"/>
  <g id="svg_16"/>
  <g id="svg_17"/>
  <g id="svg_18"/>
  <g id="svg_19"/>
  <g id="svg_20"/>
  <g id="svg_21"/>
  <g id="svg_22"/>
 </g>
</svg>