<svg width="485.213" height="485.212" xmlns="http://www.w3.org/2000/svg">

 <g>
  <title>background</title>
  <rect fill="none" id="canvas_background" height="402" width="582" y="-1" x="-1"/>
 </g>
 <g>
  <title>Layer 1</title>
  <g id="svg_1">
   <path fill="#ffffff" id="svg_2" d="m242.607,0c-133.978,0 -242.606,108.628 -242.606,242.606c0,133.976 108.628,242.606 242.606,242.606c133.978,0 242.604,-108.631 242.604,-242.606c0.001,-133.978 -108.626,-242.606 -242.604,-242.606zm128.112,353.989l-19.425,19.429c-3.468,3.463 -13.623,5.624 -13.949,5.624c-61.452,0.536 -120.621,-23.602 -164.095,-67.08c-43.593,-43.618 -67.759,-102.998 -67.11,-164.657c0,-0.028 2.224,-9.892 5.689,-13.324l19.424,-19.427c7.108,-7.141 20.762,-10.368 30.327,-7.168l4.086,1.363c9.537,3.197 19.55,13.742 22.185,23.457l9.771,35.862c2.635,9.743 -0.919,23.604 -8.025,30.712l-12.97,12.972c12.734,47.142 49.723,84.138 96.873,96.903l12.965,-12.975c7.141,-7.141 20.997,-10.692 30.719,-8.061l35.857,9.806c9.717,2.67 20.26,12.62 23.456,22.154l1.363,4.145c3.168,9.538 -0.034,23.189 -7.141,30.265z"/>
  </g>
  <g id="svg_3"/>
  <g id="svg_4"/>
  <g id="svg_5"/>
  <g id="svg_6"/>
  <g id="svg_7"/>
  <g id="svg_8"/>
  <g id="svg_9"/>
  <g id="svg_10"/>
  <g id="svg_11"/>
  <g id="svg_12"/>
  <g id="svg_13"/>
  <g id="svg_14"/>
  <g id="svg_15"/>
  <g id="svg_16"/>
  <g id="svg_17"/>
 </g>
</svg>